<?xml version="1.0" encoding="UTF-8" standalone="no"?>
<svg
   xmlns:dc="http://purl.org/dc/elements/1.1/"
   xmlns:cc="http://creativecommons.org/ns#"
   xmlns:rdf="http://www.w3.org/1999/02/22-rdf-syntax-ns#"
   xmlns:svg="http://www.w3.org/2000/svg"
   xmlns="http://www.w3.org/2000/svg"
   xmlns:sodipodi="http://sodipodi.sourceforge.net/DTD/sodipodi-0.dtd"
   xmlns:inkscape="http://www.inkscape.org/namespaces/inkscape"
   id="emoji"
   viewBox="0 0 72 72"
   version="1.1"
   sodipodi:docname="rocketdesigner.svg"
   inkscape:version="1.0.2 (1.0.2+r75+1)">
  <metadata
     id="metadata40">
    <rdf:RDF>
      <cc:Work
         rdf:about="">
        <dc:format>image/svg+xml</dc:format>
        <dc:type
           rdf:resource="http://purl.org/dc/dcmitype/StillImage" />
      </cc:Work>
    </rdf:RDF>
  </metadata>
  <defs
     id="defs38" />
  <sodipodi:namedview
     pagecolor="#ffffff"
     bordercolor="#666666"
     borderopacity="1"
     objecttolerance="10"
     gridtolerance="10"
     guidetolerance="10"
     inkscape:pageopacity="0"
     inkscape:pageshadow="2"
     inkscape:window-width="1920"
     inkscape:window-height="1015"
     id="namedview36"
     showgrid="false"
     inkscape:zoom="7.25"
     inkscape:cx="41.517241"
     inkscape:cy="36.994912"
     inkscape:window-x="1366"
     inkscape:window-y="36"
     inkscape:window-maximized="1"
     inkscape:current-layer="g2203" />
  <g
     id="color">
    <path
       fill="#FCEA2B"
       d="M16.12,48.114 c-3.1584,3.1634-4.6518,7.5601-3.97,11.688c4.128,0.6763,8.5223-0.8196,11.683-3.977c3.1584-3.1634,4.6518-7.5601,3.97-11.688 C23.675,43.4607,19.2807,44.9566,16.12,48.114z"
       id="path2" />
    <path
       fill="#61B2E4"
       d="M31.973,45.839 c-0.1919,0.966-0.6657,1.8536-1.3616,2.5507c-0.3389,0.3373-0.7246,0.6241-1.1452,0.8516 c2.1626,2.9716,3.7579,6.2847,4.6952,9.7506c0.7092-0.6216,1.3906-1.2786,2.0417-1.9685c1.9136-2.0343,3.5491-4.3376,4.8516-6.8326 c1.2507-2.4201,2.1751-4.9922,2.7442-7.6354c-3.7285,1.9544-7.7719,3.0771-11.826,3.2837L31.973,45.839z"
       id="path4" />
    <path
       fill="#92D3F5"
       d="M14.923,35.749 c-0.69,0.65-1.3472,1.3303-1.9691,2.0383c3.4682,0.9313,6.7846,2.521,9.7604,4.6784c0.2264-0.414,0.5104-0.7939,0.8435-1.1281 c0.6949-0.6935,1.5791-1.1665,2.5417-1.3598c0.2106-4.0507,1.3364-8.0899,3.293-11.814c0.0019-0.0037,0.0037-0.0074,0.0056-0.0112 c-2.645,0.5687-5.2188,1.4928-7.6405,2.7434C19.2616,32.199,16.9577,33.8349,14.923,35.749L14.923,35.749z"
       id="path6" />
    <path
       fill="#EA5A47"
       d="M34.821,20.747 c-5.2314,5.2507-8.3665,12.1635-8.7228,19.233c1.6376-0.3318,3.3326,0.1781,4.515,1.3584c1.186,1.1868,1.6956,2.8903,1.356,4.5332 c7.0754-0.3609,13.9919-3.5024,19.242-8.7398c6.7117-6.7229,9.8843-16.067,8.4337-24.839 c-1.7318-0.2827-3.5044-0.3879-5.2915-0.3141c-7.1741,0.2926-14.2097,3.4508-19.532,8.7677L34.821,20.747z M45.07,20.2179 c1.8412-1.8413,4.8269-1.8418,6.6687-0.0012c0.0004,0.0004,0.0008,0.0008,0.0012,0.0012c1.8418,1.8407,1.8424,4.8255,0.0012,6.6667 c-0.0004,0.0004-0.0008,0.0008-0.0012,0.0012c-1.8419,1.8404-4.8274,1.8398-6.6685-0.0014 C43.2297,25.0438,43.229,22.0592,45.07,20.2179z"
       id="path8" />
    <path
       fill="#F1B31C"
       d="M26.538,52.037 c-0.8756,0.9831-1.8894,1.8467-3.0072,2.5617c-3.4907,2.2228-7.7244,2.8345-11.441,1.653c-0.1495,1.1964-0.1293,2.3916,0.06,3.5496 c4.128,0.6763,8.5223-0.8195,11.683-3.9769c1.1048-1.1131,2.0209-2.3956,2.7055-3.7874L26.538,52.037z"
       id="path10" />
    <path
       fill="#D22F27"
       d="M26.204,38.687 c-0.033,0.4281-0.0559,0.8558-0.0684,1.283c1.6271-0.316,3.305,0.1967,4.4773,1.3682c1.186,1.1868,1.6956,2.8903,1.356,4.5332 c7.075-0.3618,13.9907-3.5038,19.24-8.7412c1.4932-1.5067,2.8266-3.1619,3.9746-4.9339c-1.3472,1.2267-2.8051,2.3344-4.353,3.3074 c-7.5574,4.7109-16.6938,5.8918-24.627,3.1832L26.204,38.687z"
       id="path12" />
    <polygon
       points="36.1664,-14.4511 36.1664,-14.4511 36.1664,-14.4511"
       id="polygon14" />
    <path
       fill="#61B2E4"
       d="M24.039,48.551 c0.8703-0.4372,1.7206-0.9178,2.5501-1.438c2.4433-1.5323,4.6776-3.4046,6.6294-5.5552l0.0028-0.0028 c1.8803-2.0911,3.4745-4.4187,4.7329-6.9122c0.061-0.1204,0.0967-0.252,0.1047-0.3867 C34.6604,33.5028,23.2129,44.5071,24.039,48.551L24.039,48.551z"
       id="path16" />
  </g>
  <g
     id="hair" />
  <g
     id="skin" />
  <g
     id="skin-shadow" />
  <g
     id="line">
    <path
       d="M48.405,29.49c-3.2761,0-5.941-2.6641-5.941-5.9392s2.6649-5.9392,5.941-5.9392c3.2761,0,5.941,2.6641,5.941,5.9392 S51.6811,29.49,48.405,29.49z M48.405,19.5913c-2.1839,0-3.9607,1.7757-3.9607,3.9595c0,2.1837,1.7768,3.9595,3.9607,3.9595 c2.1838,0,3.9607-1.7758,3.9607-3.9595C52.3657,21.367,50.5888,19.5913,48.405,19.5913z"
       id="path22" />
    <path
       fill="none"
       stroke="#000000"
       stroke-linecap="round"
       stroke-linejoin="round"
       stroke-miterlimit="10"
       stroke-width="1.949"
       d="M20.653,45.063c-1.678,0.7083-3.2222,1.7475-4.5331,3.0508c-3.1581,3.1631-4.6517,7.5594-3.9703,11.687 c4.128,0.6762,8.5221-0.8196,11.683-3.9769c1.3043-1.3104,2.3446-2.8541,3.0537-4.5318"
       id="path24" />
    <path
       fill="none"
       stroke="#000000"
       stroke-linecap="round"
       stroke-linejoin="round"
       stroke-miterlimit="10"
       stroke-width="1.949"
       d="M14.923,35.749c-0.69,0.65-1.3472,1.3303-1.9691,2.0383c3.4682,0.9313,6.7846,2.521,9.7604,4.6784 c0.2264-0.414,0.5104-0.7939,0.8435-1.1281c0.6949-0.6935,1.5791-1.1665,2.5417-1.3598c0.2106-4.0507,1.3364-8.0899,3.293-11.814 c0.0019-0.0037,0.0037-0.0074,0.0056-0.0112c-2.645,0.5687-5.2188,1.4928-7.6405,2.7434 C19.2616,32.199,16.9577,33.8349,14.923,35.749L14.923,35.749z"
       id="path26" />
    <path
       fill="none"
       stroke="#000000"
       stroke-linecap="round"
       stroke-linejoin="round"
       stroke-miterlimit="10"
       stroke-width="1.949"
       d="M31.973,45.839c-0.1919,0.966-0.6657,1.8536-1.3616,2.5507c-0.3389,0.3373-0.7246,0.6241-1.1452,0.8516 c2.1626,2.9716,3.7579,6.2847,4.6952,9.7506c0.7092-0.6216,1.3906-1.2786,2.0417-1.9685c1.9136-2.0343,3.5491-4.3376,4.8516-6.8326 c1.2507-2.4201,2.1751-4.9922,2.7442-7.6354c-3.7285,1.9544-7.7719,3.0771-11.826,3.2837L31.973,45.839z"
       id="path28" />
    <path
       fill="none"
       stroke="#000000"
       stroke-linecap="round"
       stroke-linejoin="round"
       stroke-miterlimit="10"
       stroke-width="1.949"
       d="M31.83,43.345c0.2696,0.8863,0.2506,1.6919,0.1371,2.5245c7.0759-0.3611,13.993-3.5031,19.243-8.7412 c6.7106-6.7215,9.8836-16.063,8.4351-24.834c-8.7712-1.4365-18.108,1.742-24.823,8.4508 c-5.2322,5.2509-8.3679,12.164-8.7242,19.234c0.9413-0.1907,1.8984-0.0942,2.7693,0.2387"
       id="path30" />
    <path
       fill="none"
       stroke="#000000"
       stroke-linecap="round"
       stroke-linejoin="round"
       stroke-miterlimit="10"
       stroke-width="1.949"
       d="M37.072,34.196l-0.0002,0c-2.4156,1.2183-4.6724,2.7626-6.6996,4.5844c-2.0849,1.8911-3.9,4.0556-5.3844,6.4211 c-0.5039,0.8031-0.9684,1.6273-1.3917,2.4694"
       id="path32" />
  </g>
  <g
     id="g2203"
     transform="matrix(0.77829544,0,0,0.77829544,10.746328,12.230897)">
    <path
       d="m 54.554654,41.162977 c -0.398145,0 -0.727644,1.53423 -0.919852,3.724027 a 12.129689,12.129689 0 0 0 -2.93117,1.235622 C 49.008084,44.701661 47.683223,43.84359 47.405207,44.125038 l -3.123378,3.123377 c -0.278015,0.278015 0.576624,1.602877 1.99759,3.294992 a 12.129689,12.129689 0 0 0 -1.221894,2.93117 c -2.196661,0.195641 -3.734324,0.52514 -3.734324,0.923284 v 4.410485 c 0,0.398145 1.530799,0.727644 3.724028,0.919852 a 12.129689,12.129689 0 0 0 1.225325,2.938035 c -1.414101,1.692115 -2.268739,3.010113 -1.990725,3.294992 l 3.123378,3.116513 c 0.281447,0.281447 1.599445,-0.569759 3.284696,-1.98386 a 12.129689,12.129689 0 0 0 2.944899,1.211597 c 0.192208,2.196661 0.521707,3.734324 0.919852,3.734324 h 4.413916 c 0.398145,0 0.727645,-1.530799 0.923285,-3.724028 a 12.129689,12.129689 0 0 0 2.93117,-1.23219 c 1.692116,1.420966 3.016977,2.275605 3.294992,1.994157 l 3.123378,-3.119945 C 69.522842,65.676346 68.664772,64.354916 67.247238,62.6628 a 12.129689,12.129689 0 0 0 1.218461,-2.934602 c 2.196661,-0.192208 3.737757,-0.521707 3.737757,-0.919852 v -4.410485 c 0,-0.398144 -1.534231,-0.727643 -3.724028,-0.923284 a 12.129689,12.129689 0 0 0 -1.228757,-2.938034 c 1.414101,-1.688684 2.272171,-3.010113 1.990724,-3.29156 l -3.123378,-3.119945 c -0.278015,-0.281448 -1.596012,0.57319 -3.284695,1.987291 a 12.129689,12.129689 0 0 0 -2.941467,-1.215028 c -0.19564,-2.196661 -0.52514,-3.734324 -0.923285,-3.734324 z m 2.206958,9.926163 a 5.5122473,5.5122473 0 0 1 5.512248,5.512248 5.5122473,5.5122473 0 0 1 -5.512248,5.515679 5.5122473,5.5122473 0 0 1 -5.515679,-5.515679 5.5122473,5.5122473 0 0 1 5.515679,-5.512248 z"
       fill="#bcbcbc"
       overflow="visible"
       style="opacity:1;isolation:auto;mix-blend-mode:normal;stroke:#000000;stroke-width:1.44915;stroke-miterlimit:4;stroke-dasharray:none;stroke-opacity:0.65"
       id="path1560" />
  </g>
</svg>
